<svg xmlns="http://www.w3.org/2000/svg" xmlns:xlink="http://www.w3.org/1999/xlink" width="855" height="825" xmlns:v="https://vecta.io/nano"><defs><linearGradient x1="78.1081486%" y1="20.8875555%" x2="10.0276585%" y2="97.333351%" id="A"><stop stop-color="#b5e1db" offset="0%"/><stop stop-color="#e3ffea" offset="100%"/></linearGradient><path d="M849 12.722V868H58.104c-77.472-65.246-77.472-153.956 0-266.13s91.306-197.035 41.503-254.584C9.687 222.327-4.477 128.395 57.114 65.491S382.668-15.002 849 12.722z" id="B"/><ellipse id="C" cx="136.023" cy="136.546" rx="136.023" ry="136.546"/><path d="M281.431 1.097c-12.37 5.07-24.269 11.225-35.554 18.392h0l-1.193.758a4.38 4.38 0 0 1-1.256.544h0l-8.458 2.184a29.81 29.81 0 0 0-18.607 14.378h0a4.38 4.38 0 0 0-.421 3.19h0l5.854 23.403a4.27 4.27 0 0 1 .108.619h0c.217 2.169 1.421 14.965-.031 17.141h0c-1.272 1.907-.507 10.429-.152 13.747h0c.094.878-.08 1.759-.498 2.536h0l-4.037 7.49a4.38 4.38 0 0 0-.328 3.367h0l4.479 14.511c.343 1.112.231 2.315-.316 3.343h0l-2.675 5.042a4.38 4.38 0 0 1-3.871 2.327h0-23.712a4.38 4.38 0 0 0-4.34 3.779h0l-5.917 42.681c-.103.749-.399 1.458-.858 2.058h0l-16.934 22.149c-.744.976-1.863 1.593-3.085 1.703h0l-6.17.561c-.428.039-.859.016-1.28-.072h0l-8.431-1.732c-1.552-.32-2.812-1.452-3.293-2.963h0l-2.547-7.991a4.38 4.38 0 0 0-4.174-3.051h0-6.954c-1.573 0-3.024.844-3.804 2.208h0l-7.947 13.898c-.21.366-.473.702-.78.996h0l-25.976 24.756a4.36 4.36 0 0 0-.373.402h0l-6.347 7.788c-9.313 11.425-16.796 24.234-22.078 37.993h0c-.576 1.502-.982 2.639-1.12 3.194h0c-.139.555-.667 1.916-1.444 3.784h0c-7.389 17.778-17.495 34.302-29.845 49.076h0l-9.988 12.194h0c-1.185 1.777 7.962 14.602 12.678 20.994h0c1.464 1.983.995 4.781-1.031 6.188h0L1.889 393.297c-3.309 2.3-2.03 7.473 1.972 7.948h0c241.037 28.689 609.323 4.381 678.07-.571h0c3.994-.288 5.535-5.335 2.388-7.809h0l-26.975-21.209c-.318-.251-.671-.455-1.046-.609h0l-30.202-12.386c-.126-.052-.25-.109-.37-.173h0l-49.331-25.824c-11.072-5.797-23.862-7.413-36.029-4.552h0l-17.186 4.042c-2.42.57-4.83-.987-5.304-3.426h0l-4.513-23.2a4.42 4.42 0 0 0-.687-1.642h0l-8.145-11.866a77.58 77.58 0 0 0-26.616-24.112h0c-22.935-12.605-62.535-34.112-66.762-34.673h0l-1.035-.146h0c-9.001-1.343-17.657-4.411-25.584-8.88h0l-19.164-10.805a4.38 4.38 0 0 1-1.966-2.315h0l-5.652-15.518a4.38 4.38 0 0 1-.21-.815h0l-4.494-28.458a57.75 57.75 0 0 1 3.899-31.611h0l4.718-11.095c1.145-2.692-.623-5.729-3.531-6.064h0c-9.434-1.087-17.969-6.11-23.498-13.826h0l-10.963-15.3c-.533-.743-.82-1.635-.82-2.549h0V63.347c0-1.423-.69-2.757-1.853-3.577h0l-5.284-3.729a4.38 4.38 0 0 1-1.854-3.579h0V33.273c0-.5-.087-.996-.253-1.468h0l-2.304-6.477c-2.953-8.297-7.941-15.72-14.507-21.59h0-.001A14.69 14.69 0 0 0 287.002 0h0a14.7 14.7 0 0 0-5.571 1.097h0z" id="D"/><path id="E" d="M732.997 224.233l-1.157-2.388a3.6 3.6 0 0 0-1.502-1.582l-2.926-1.613 2.843-1.474c.705-.365 1.268-.952 1.604-1.671l1.138-2.437 1.139 2.437c.336.719.899 1.306 1.604 1.671l2.843 1.474-2.926 1.613a3.6 3.6 0 0 0-1.502 1.582l-1.157 2.388z"/><path id="F" d="M70.192 728.749l-1.154-2.383a3.59 3.59 0 0 0-1.498-1.579l-2.918-1.609 2.835-1.471a3.59 3.59 0 0 0 1.6-1.668l1.135-2.431 1.136 2.431a3.59 3.59 0 0 0 1.6 1.668l2.835 1.471-2.919 1.609a3.59 3.59 0 0 0-1.498 1.579l-1.154 2.383z"/></defs><g fill="none" fill-rule="evenodd"><g fill="#fff"><path d="M0 0h855v825H0z"/><ellipse cx="136.491" cy="128.207" rx="3.351" ry="3.35"/><ellipse cx="308.517" cy="399.353" rx="3.351" ry="3.35"/><ellipse cx="778.796" cy="423.574" rx="3.351" ry="3.35"/><ellipse opacity=".324" cx="556.796" cy="325.574" rx="3.351" ry="3.35"/><use xlink:href="#E"/><use xlink:href="#E" x="-308.306" y="-109.425"/><use xlink:href="#E" x="-602.306" y="262.575" opacity=".486"/></g><g transform="translate(11 -13)"><mask id="G" fill="#fff"><use xlink:href="#B"/></mask><use fill="url(#A)" xlink:href="#B"/><g mask="url(#G)"><g transform="translate(44.777 640.742)"><g transform="translate(16.488 16.551)"><g transform="matrix(.965926 -.258819 .258819 .965926 3.300117 73.994569)"><mask id="H" fill="#fff"><use xlink:href="#C"/></mask><use fill="#02ccba" xlink:href="#C"/><g mask="url(#H)"><g transform="translate(-22.671 -37.929)"><path d="M49.854 40.939C71.97 63.76 96.331 76.089 129.278 72.39c15.382-1.727 26.811-10.547 42.957-5.912 68.407 19.64 14.993 18.448 73.561 22.817 9.133.681 18.488 1.77 27.475 0 8.322-1.639 16.86-15.437 23.401-10.019 9.501 7.869 15.61 26.315 8.177 36.174-12.196 16.175-40.654-3.926-53.662-6.486-19.37-3.811-37.648 15.282-55.285 7.664-16.721-7.223-31.935-30.373-54.119-24.443-55.314 14.786-17.249 24.498-86.269 32.17-13.999 1.556-47.719 14.127-42.238 1.104L0 119.705c112.358-266.971 17.881 8.111 45.777-74.433l4.077-4.334z" fill="#02a899"/><path d="M1.889 163.965c41.935 7.976 67.399-10.924 106.442-25.602 27.026-10.16 45.403 3.859 71.524 6.993 29.208 3.504 15.648-6.356 40.179-13.272 20.343-5.735 48.574 10.326 64.3 12.923 9.663 1.596 20.041-3.979 29.364-.97 3.516 1.135-4.635 5.957-7.752 7.945-5.226 3.333-10.706 8.151-16.885 7.767-10.201-.634-18.892-8.028-28.785-10.605-3.062-.798-6.526-.525-9.468.641-10.222 4.05-20.002 9.228-29.489 14.794-5.124 3.006-8.336 9.738-14.173 10.819-9.763 1.809-20.354.767-29.663-2.697-13.672-5.087-24.469-16.096-37.651-22.35-4.599-2.182-10.387-4.726-15.033-2.645-10.271 4.601-17.024 14.842-26.335 21.176-6.252 4.254-13.919 6.127-20.132 10.438-7.761 5.385-13.618 13.28-21.516 18.461-10.067 6.604-20.664 12.724-32.032 16.664-5.055 1.752-13.825 4.885-16.044 0-6.399-14.087-3.289-30.788-4.933-46.182l-1.919-4.3z" fill="#06decb"/><g fill="#02a899"><path d="M24.56 240.029c30.837-.806 53.456.762 80.852-12.823 30.372-15.061 59.57-41.667 95.996-37.022 26.735 3.41 40.803 29.537 70.381 26.551 12.263-1.238 30.986-17.143 36.478-6.067 7.015 14.146-3.388 37.352-17.689 43.956-13.952 6.443-28.406-12.05-43.304-15.79-6.335-1.59-13.243-1.543-19.59 0-6.482 1.575-11.323 7.662-17.837 9.097-17.708 3.901-31.251-11.834-49.123-5.73-59.192 20.215-48.293 32.419-103.15 24.002-4.017-.616-9.734 3.586-12.188.333l-8.387 3.974c-5.57-7.384-5.7-17.619-8.549-26.428l-3.889-4.052zm54.787 65.745c49.348-50.09 123.007-14.699 182.497-20.528 10.738-1.052 22.569-15.023 31.224-8.556 6.882 5.143-11.255 13.188-18.132 18.339-6.869 5.145-14.432 9.775-22.652 12.209-33.313 9.863-64.936-24.725-99.925-12.89-12.827 4.338-20.628 17.996-32.659 24.221-6.011 3.11-13.345 3.872-20.058 3.052-5.989-.732-12.218-3.228-16.479-7.515-2.861-2.878-1.86-7.914-2.79-11.871"/></g></g></g></g><path d="M258.444 276.101l-.762.622c-23.579 19.082-53.567 30.505-86.212 30.505-75.919 0-137.464-61.781-137.464-137.992 0-33.127 11.628-63.527 31.011-87.312 17.106 98.946 94.865 177.003 193.428 194.177z" fill-opacity=".455" fill="#029487"/></g></g></g><g mask="url(#G)"><g transform="matrix(-1 0 0 1 883 445)"><mask id="I" fill="#fff"><use xlink:href="#D"/></mask><path fill="#c7f0ec" mask="url(#I)" d="M-64 469h816V-26H-64z"/><path d="M252.828-3.024l1.432 54.237 14.805 24.725s2.384 19.142 0 23.131-12.441 14.357-13.373 19.94-3.837 15.154 0 17.547 8.605 11.166 10.99 11.166 39.732-5.583 39.732-5.583l19.866-6.381v5.584l-11.126 9.569-24.633 5.584c-3.974.798-25.43 7.975-25.43 7.975s-5.391 15.954-4.285 18.346-3.49 5.583 0 8.773 13.026 11.167 13.821 14.357-3.179 14.357-3.179 14.357-5.562 11.964-6.357 20.738 10.33 20.739 10.33 20.739l18.334 13.559c9.479 7.177 15.659 6.38 18.131 12.76s6.446 8.774 14.393 16.75 39.732 5.583 44.5 3.988 15.893-11.166 21.456-3.988 7.947 11.429 7.947 16.083 4.768 7.844 0 11.833-9.536 3.988-10.331 11.166 7.152 15.155 7.152 15.155l25.429 16.749c6.358 3.988 16.043 2.393 14.379 10.369s-4.048 13.559-4.048 13.559l-1.59 9.571s-1.566 2.444-1.577 9.995l-.012 11.54L164.966 454 10.009 430.869-48 412.525-2.32 309.634l131.526-179.708L235.689-11l17.138 7.976z" fill="#aedcd3" mask="url(#I)"/></g></g><ellipse fill="#fff" cx="28.411" cy="165.617" rx="26.183" ry="26.179"/><path d="M43.569 186.079l-.151.122a25.21 25.21 0 0 1-15.876 5.595c-13.981 0-25.314-11.332-25.314-25.311 0-6.081 2.145-11.661 5.719-16.025 3.168 18.141 17.48 32.45 35.623 35.618z" fill="#d0d0d0" opacity=".674"/><g fill="#e0e0e0"><circle opacity=".569" cx="27.297" cy="150.021" r="3.9"/><circle opacity=".569" cx="35.653" cy="167.288" r="3.342"/></g><g fill="#fff"><use xlink:href="#F"/><circle cx="71.306" cy="162.832" r="3.342"/><circle cx="242.887" cy="622.918" r="3.342"/><circle cx="731.949" cy="547.244" r="3.342"/><use xlink:href="#F" x="596.077" y="-470.112"/><use xlink:href="#F" x="288.568" y="-579.285"/></g></g></g></svg>