<svg xmlns="http://www.w3.org/2000/svg" viewBox="0 0 855 825" xmlns:v="https://vecta.io/nano"><style><![CDATA[.F,.G,.O{isolation:isolate}.P{fill-rule:evenodd}.Q{fill:#fff}.R{fill:#d4c3a5}.S{mask:url(#E)}]]></style><defs><linearGradient id="A" x1="351.49" y1="266.3" x2="689.16" y2="63.61" gradientUnits="userSpaceOnUse"><stop offset="0" stop-color="#ffefbb"/><stop offset="1" stop-color="#dfcbaa"/></linearGradient><mask id="B" x="11.82" y="-121" width="843.18" height="961.01" maskUnits="userSpaceOnUse"><path d="M17-106Q185.47-18.8,99.46,54c-86,72.8-82.09,123.06,1.93,233s-16,90.5-27.48,201S185.28,629,17,725q-71.28,40.66,838,115V-121Z" class="P Q"/></mask><mask id="C" x="310.33" y="192" width="585" height="328" maskUnits="userSpaceOnUse"><path d="M601.41 217a2.31 2.31 0 0 0-.83.15h0l-13.88 5.21a2.35 2.35 0 0 1-.91.15h0l-21.68-.74a2.12 2.12 0 0 1-.44-.05h0l-20.73-4.66a2.22 2.22 0 0 0-.51-.06h-12.21a2.28 2.28 0 0 0-.93.19h0l-11.07 4.73a2.37 2.37 0 0 0-1.44 2.18h0v.8a2.41 2.41 0 0 1-1.27 2.1h0a3.5 3.5 0 0 0-1.67 3.94h0c.59 3.92-3.08 2.15-.07 8.06h0c3 5.9 2.42 15.7 1.84 22h0c-.57 6.12-7.76 56.62-8.22 59.87h0a1.84 1.84 0 0 0 0 .33h0v18.13s0 14-5.88 6.71h0c-4.62-5.72-8.88-12-10.5-14.5h0a2.37 2.37 0 0 0-2-1.06h-5.91a2.36 2.36 0 0 0-1.76.78h0l-4.48 5-.21.27h0l-4.65 6.94c-1.18 1.78-3 2.55-3.54 7.18h0c-.58 4.63 4.13-.09 0 8.17h0a115.5 115.5 0 0 1-11.18 17.12h0c-2.95 4.13-10 8.85-12.37 10.62h0c-2.16 1.63-26.25 12.25-30.1 13.94h0a2.29 2.29 0 0 0-.87.67h0l-18.15 22.18a2.33 2.33 0 0 0-.46.9h0c-.43 1.64-1.83 6.87-2.82 8.36h0a51 51 0 0 1-4.6 5.2h0l-.21.19h0a30.52 30.52 0 0 0-5.2 5.82h0c-2.94 4.13-7.82 7.09-7.14 12.4h0a31.26 31.26 0 0 1 0 8.85h0l-1.06 6.18a2.36 2.36 0 0 1-.87 1.46h0c-2.49 2-10.61 8.57-9.41 10.07h0a2.37 2.37 0 0 1-.29 3.26h0l-3.63 3.19a2.37 2.37 0 0 0 1.32 4.14h0c35.41 3.47 240.39 21.16 490.77-7.22h0a2.37 2.37 0 0 0 1.75-3.59h0l-4.2-6.88a2.46 2.46 0 0 1-.34-1.24h0v-8.92a2.37 2.37 0 0 0-1.76-2.29h0c-3-.79-8.87-2.29-10.61-2.29h0c-2.35 0-8.83 1.18-10.6 0h0c-1.49-1-3.4-5.78-4-7.25h0a2.49 2.49 0 0 0-.48-.77h0l-10.45-11.19a2.3 2.3 0 0 0-1-.63h0c-5.15-1.71-35.5-11.21-38.5-12.1h0a2.37 2.37 0 0 1-.46-.2h0l-8.16-4.66a2.36 2.36 0 0 1-1.1-2.73h0l1.92-6.56a2.36 2.36 0 0 0-.95-2.64h0L739.09 396a2.36 2.36 0 0 1-1-1.74h0l-11-111.5a2.37 2.37 0 0 0-.62-1.38h0l-7.39-8a2.45 2.45 0 0 0-.72-.52h0L704 266.1s-11.76-6.1-15.3-5.1h0c-3.16.9-8.67-6.94-9.8-8.61h0a2.53 2.53 0 0 1-.31-.64h0l-2.74-9a2.3 2.3 0 0 1-.1-.69h0v-13.58a2.37 2.37 0 0 0-1.88-2.32h0l-37.38-7.91a2.32 2.32 0 0 0-.38-.05h0L608 217z" class="P Q"/></mask><mask id="D" x="359.33" y="209" width="495" height="293" maskUnits="userSpaceOnUse"><path d="M601.41 217a2.31 2.31 0 0 0-.83.15h0l-13.88 5.21a2.35 2.35 0 0 1-.91.15h0l-21.68-.74a2.12 2.12 0 0 1-.44-.05h0l-20.73-4.66a2.22 2.22 0 0 0-.51-.06h-12.21a2.28 2.28 0 0 0-.93.19h0l-11.07 4.73a2.37 2.37 0 0 0-1.44 2.18h0v.8a2.41 2.41 0 0 1-1.27 2.1h0a3.5 3.5 0 0 0-1.67 3.94h0c.59 3.92-3.08 2.15-.07 8.06h0c3 5.9 2.42 15.7 1.84 22h0c-.57 6.12-7.76 56.62-8.22 59.87h0a1.84 1.84 0 0 0 0 .33h0v18.13s0 14-5.88 6.71h0c-4.62-5.72-8.88-12-10.5-14.5h0a2.37 2.37 0 0 0-2-1.06h-5.91a2.36 2.36 0 0 0-1.76.78h0l-4.48 5-.21.27h0l-4.65 6.94c-1.18 1.78-3 2.55-3.54 7.18h0c-.58 4.63 4.13-.09 0 8.17h0a115.5 115.5 0 0 1-11.18 17.12h0c-2.95 4.13-10 8.85-12.37 10.62h0c-2.16 1.63-26.25 12.25-30.1 13.94h0a2.29 2.29 0 0 0-.87.67h0l-18.15 22.18a2.33 2.33 0 0 0-.46.9h0c-.43 1.64-1.83 6.87-2.82 8.36h0a51 51 0 0 1-4.6 5.2h0l-.21.19h0a30.52 30.52 0 0 0-5.2 5.82h0c-2.94 4.13-7.82 7.09-7.14 12.4h0a31.26 31.26 0 0 1 0 8.85h0l-1.06 6.18a2.36 2.36 0 0 1-.87 1.46h0c-2.49 2-10.61 8.57-9.41 10.07h0a2.37 2.37 0 0 1-.29 3.26h0l-3.63 3.19a2.37 2.37 0 0 0 1.32 4.14h0c35.41 3.47 240.39 21.16 490.77-7.22h0a2.37 2.37 0 0 0 1.75-3.59h0l-4.2-6.88a2.46 2.46 0 0 1-.34-1.24h0v-8.92a2.37 2.37 0 0 0-1.76-2.29h0c-3-.79-8.87-2.29-10.61-2.29h0c-2.35 0-8.83 1.18-10.6 0h0c-1.49-1-3.4-5.78-4-7.25h0a2.49 2.49 0 0 0-.48-.77h0l-10.45-11.19a2.3 2.3 0 0 0-1-.63h0c-5.15-1.71-35.5-11.21-38.5-12.1h0a2.37 2.37 0 0 1-.46-.2h0l-8.16-4.66a2.36 2.36 0 0 1-1.1-2.73h0l1.92-6.56a2.36 2.36 0 0 0-.95-2.64h0L739.09 396a2.36 2.36 0 0 1-1-1.74h0l-11-111.5a2.37 2.37 0 0 0-.62-1.38h0l-7.39-8a2.45 2.45 0 0 0-.72-.52h0L704 266.1s-11.76-6.1-15.3-5.1h0c-3.16.9-8.67-6.94-9.8-8.61h0a2.53 2.53 0 0 1-.31-.64h0l-2.74-9a2.3 2.3 0 0 1-.1-.69h0v-13.58a2.37 2.37 0 0 0-1.88-2.32h0l-37.38-7.91a2.32 2.32 0 0 0-.38-.05h0L608 217z" class="P Q"/></mask><mask id="E" x="359.33" y="217" width="495" height="285" maskUnits="userSpaceOnUse"><path d="M601.41 217a2.31 2.31 0 0 0-.83.15h0l-13.88 5.21a2.35 2.35 0 0 1-.91.15h0l-21.68-.74a2.12 2.12 0 0 1-.44-.05h0l-20.73-4.66a2.22 2.22 0 0 0-.51-.06h-12.21a2.28 2.28 0 0 0-.93.19h0l-11.07 4.73a2.37 2.37 0 0 0-1.44 2.18h0v.8a2.41 2.41 0 0 1-1.27 2.1h0a3.5 3.5 0 0 0-1.67 3.94h0c.59 3.92-3.08 2.15-.07 8.06h0c3 5.9 2.42 15.7 1.84 22h0c-.57 6.12-7.76 56.62-8.22 59.87h0a1.84 1.84 0 0 0 0 .33h0v18.13s0 14-5.88 6.71h0c-4.62-5.72-8.88-12-10.5-14.5h0a2.37 2.37 0 0 0-2-1.06h-5.91a2.36 2.36 0 0 0-1.76.78h0l-4.48 5-.21.27h0l-4.65 6.94c-1.18 1.78-3 2.55-3.54 7.18h0c-.58 4.63 4.13-.09 0 8.17h0a115.5 115.5 0 0 1-11.18 17.12h0c-2.95 4.13-10 8.85-12.37 10.62h0c-2.16 1.63-26.25 12.25-30.1 13.94h0a2.29 2.29 0 0 0-.87.67h0l-18.15 22.18a2.33 2.33 0 0 0-.46.9h0c-.43 1.64-1.83 6.87-2.82 8.36h0a51 51 0 0 1-4.6 5.2h0l-.21.19h0a30.52 30.52 0 0 0-5.2 5.82h0c-2.94 4.13-7.82 7.09-7.14 12.4h0a31.26 31.26 0 0 1 0 8.85h0l-1.06 6.18a2.36 2.36 0 0 1-.87 1.46h0c-2.49 2-10.61 8.57-9.41 10.07h0a2.37 2.37 0 0 1-.29 3.26h0l-3.63 3.19a2.37 2.37 0 0 0 1.32 4.14h0c35.41 3.47 240.39 21.16 490.77-7.22h0a2.37 2.37 0 0 0 1.75-3.59h0l-4.2-6.88a2.46 2.46 0 0 1-.34-1.24h0v-8.92a2.37 2.37 0 0 0-1.76-2.29h0c-3-.79-8.87-2.29-10.61-2.29h0c-2.35 0-8.83 1.18-10.6 0h0c-1.49-1-3.4-5.78-4-7.25h0a2.49 2.49 0 0 0-.48-.77h0l-10.45-11.19a2.3 2.3 0 0 0-1-.63h0c-5.15-1.71-35.5-11.21-38.5-12.1h0a2.37 2.37 0 0 1-.46-.2h0l-8.16-4.66a2.36 2.36 0 0 1-1.1-2.73h0l1.92-6.56a2.36 2.36 0 0 0-.95-2.64h0L739.09 396a2.36 2.36 0 0 1-1-1.74h0l-11-111.5a2.37 2.37 0 0 0-.62-1.38h0l-7.39-8a2.45 2.45 0 0 0-.72-.52h0L704 266.1s-11.76-6.1-15.3-5.1h0c-3.16.9-8.67-6.94-9.8-8.61h0a2.53 2.53 0 0 1-.31-.64h0l-2.74-9a2.3 2.3 0 0 1-.1-.69h0v-13.58a2.37 2.37 0 0 0-1.88-2.32h0l-37.38-7.91a2.32 2.32 0 0 0-.38-.05h0L608 217z" class="P Q"/></mask><mask id="F" x="345.33" y="217" width="509" height="285" maskUnits="userSpaceOnUse"><path d="M601.41 217a2.31 2.31 0 0 0-.83.15h0l-13.88 5.21a2.35 2.35 0 0 1-.91.15h0l-21.68-.74a2.12 2.12 0 0 1-.44-.05h0l-20.73-4.66a2.22 2.22 0 0 0-.51-.06h-12.21a2.28 2.28 0 0 0-.93.19h0l-11.07 4.73a2.37 2.37 0 0 0-1.44 2.18h0v.8a2.41 2.41 0 0 1-1.27 2.1h0a3.5 3.5 0 0 0-1.67 3.94h0c.59 3.92-3.08 2.15-.07 8.06h0c3 5.9 2.42 15.7 1.84 22h0c-.57 6.12-7.76 56.62-8.22 59.87h0a1.84 1.84 0 0 0 0 .33h0v18.13s0 14-5.88 6.71h0c-4.62-5.72-8.88-12-10.5-14.5h0a2.37 2.37 0 0 0-2-1.06h-5.91a2.36 2.36 0 0 0-1.76.78h0l-4.48 5-.21.27h0l-4.65 6.94c-1.18 1.78-3 2.55-3.54 7.18h0c-.58 4.63 4.13-.09 0 8.17h0a115.5 115.5 0 0 1-11.18 17.12h0c-2.95 4.13-10 8.85-12.37 10.62h0c-2.16 1.63-26.25 12.25-30.1 13.94h0a2.29 2.29 0 0 0-.87.67h0l-18.15 22.18a2.33 2.33 0 0 0-.46.9h0c-.43 1.64-1.83 6.87-2.82 8.36h0a51 51 0 0 1-4.6 5.2h0l-.21.19h0a30.52 30.52 0 0 0-5.2 5.82h0c-2.94 4.13-7.82 7.09-7.14 12.4h0a31.26 31.26 0 0 1 0 8.85h0l-1.06 6.18a2.36 2.36 0 0 1-.87 1.46h0c-2.49 2-10.61 8.57-9.41 10.07h0a2.37 2.37 0 0 1-.29 3.26h0l-3.63 3.19a2.37 2.37 0 0 0 1.32 4.14h0c35.41 3.47 240.39 21.16 490.77-7.22h0a2.37 2.37 0 0 0 1.75-3.59h0l-4.2-6.88a2.46 2.46 0 0 1-.34-1.24h0v-8.92a2.37 2.37 0 0 0-1.76-2.29h0c-3-.79-8.87-2.29-10.61-2.29h0c-2.35 0-8.83 1.18-10.6 0h0c-1.49-1-3.4-5.78-4-7.25h0a2.49 2.49 0 0 0-.48-.77h0l-10.45-11.19a2.3 2.3 0 0 0-1-.63h0c-5.15-1.71-35.5-11.21-38.5-12.1h0a2.37 2.37 0 0 1-.46-.2h0l-8.16-4.66a2.36 2.36 0 0 1-1.1-2.73h0l1.92-6.56a2.36 2.36 0 0 0-.95-2.64h0L739.09 396a2.36 2.36 0 0 1-1-1.74h0l-11-111.5a2.37 2.37 0 0 0-.62-1.38h0l-7.39-8a2.45 2.45 0 0 0-.72-.52h0L704 266.1s-11.76-6.1-15.3-5.1h0c-3.16.9-8.67-6.94-9.8-8.61h0a2.53 2.53 0 0 1-.31-.64h0l-2.74-9a2.3 2.3 0 0 1-.1-.69h0v-13.58a2.37 2.37 0 0 0-1.88-2.32h0l-37.38-7.91a2.32 2.32 0 0 0-.38-.05h0L608 217z" class="P Q"/></mask></defs><path d="M0 0h855v825H0z" class="Q"/><path d="M855 449.69V-121Q-54.29-46.66 17-6c168.28 96 45.43 126.5 56.91 237s111.55 91 27.48 201c-35.45 46.39-56.64 82.15-62.83 113.47 170.61-60.47 417.53-98.41 692.22-98.41q63.22 0 124.22 2.63z" fill="url(#A)"/><g fill="#f3e8d6"><path d="M855,449.69V825.31L17,825q168.47-87.19,82.46-160c-49.71-42.08-69.38-76.64-60.9-119.53"/><path d="M99.46 665q86 72.81-82.46 160l838 .31V449.69q-61-2.6-124.22-2.63c-274.69 0-521.61 38-692.22 98.41-8.48 42.89 11.19 77.45 60.9 119.53z"/></g><g mask="url(#B)"><circle cx="323" cy="115" r="21" class="Q"/><path class="F P" d="M335.16 131.41h-.05a20.3 20.3 0 0 1-28.52-28.61 35.22 35.22 0 0 0 28.57 28.61z" fill="#d0d0d0" opacity=".67"/><circle class="G" cx="322.5" cy="103.5" r="3.5" fill="#e0e0e0" opacity=".57"/><circle class="G" cx="329.5" cy="117.5" r="3.5" fill="#e0e0e0" opacity=".57"/></g><g mask="url(#B)" class="P"><g mask="url(#C)"><path d="M310.33 520h585V192h-585v328z" fill="#f3e8d6"/></g><g mask="url(#D)" class="R"><path d="M558.33 209v37.66l7.75 28.34v14.7s-3 3-3.88 5.61 0 9.73 0 9.73l3.88 17.49s3.57.21 0 16.74-2 21.48-3.08 30.8 0 21.12 0 21.12l4.67 8.85 12.71 8.26 10.73 17.73s-.59 7.05 0 8.82 4.77-16.52 4.77-16.52 7.75-7.67 0-11.21-11.32-10-12.52-11.8-1.19-4.72-.59-8.26l1.79-10.62c.6-4.13 1.79-16.92 1.79-16.92V345.2L584 331.62s-2.38-5.31-1.19-17.7 4.17-18.58 4.17-18.58a17.49 17.49 0 0 0 3-7.61c.6-4.49 3-5 1.79-12.7s-3.58-16.46-3.58-16.46-4.68-14.61-5.36-25.35-.6-19.22-.6-20.59-23.9-3.63-23.9-3.63"/></g><g class="S R"><path d="M492.33,316.38s14.78,36.21,14.78,38v14.25s4.73,19,5.91,23.74,4.14,24.93,4.73,28.49S522.48,437,522.48,437V418.48s1.77-4.16,0-11.87-3.55-11.28-1.78-20.19-2.36-2.37,1.78-8.9,5.91-5.55,3.54-16.43,3-17.4,5.92-26.31,8.86-12.57,8.86-23.5,2.37-15-2.95-22.44-3-3.92-8.87-12.23-9.46-7.12-7.09-16,3.54-10.13,3.54-11.89-2.95-3.11-5.91-7.78-4.73-9.5-10-13.61-14.19-5.3-14.19-5.3Z"/></g><g class="S R"><path d="M685.18,258.12s-1.92,17.2,0,19,0,21.84,0,21.84l5.14,25.2s1.28,16.71,0,19.66-2.71,14.76-2.71,14.76.5,14.17,0,19.48a28.81,28.81,0,0,0,0,7.67l7.2,18.3V391s1.28-5.31,2.56-9.44-.64-4.72,0-16.53-.38-14.16.45-18.3-2.75-9.53,0-15.68,6-7.34,4.69-14.42,4.43-1.65.29-12.93-7-17.17-8.47-22.49,4.65-8,0-13,2.09-6.1,0-9.54-9.15-.58-9.15-.58"/></g><g class="S R"><path d="M701.07 452.21a88.23 88.23 0 0 1-12.28-6.44 34 34 0 0 1-8.83-9.26s-3-3.4-5.31 0-.59 2.59-5.3 7.1-1.77 8.6-6.48 8.6-5.9-5.27-18.86 0-13 8.21-13 8.21L615.73 471c-1.76 1.2-2.36-1.76-4.72 0s-13.68.28-13.68.28V478l23.7-2.34s0 .58 4.12-1.76 12.38-5.86 16.5-8.79 11.2-5.28 11.2-5.28 16.5 2.93 19.45 2.93 10.41-2.34 10.41-2.34a4.4 4.4 0 0 1 4.91-1.17c2.94 1.17 20 1.17 22.39 1.17s1.18-4.1 12.37.58 10 3.52 14.73 6.45 12.38 2.93 12.38 2.93l8.84-.58-20.63-7s-11.19-6.08-13.55-6.26-6.48 1.94-8.25 0-14.83-4.29-14.83-4.29"/></g><g class="S R"><path d="M583.56 449.27s-6.48-4.1-10-7-5.88-9.6-5.88-9.6 5.88-12.61 0-7.36a79.93 79.93 0 0 1-12.36 8.87l-13.6 9.26c.07 2.93.07 5.86-4.64 5.86s-11.18-1.17-13.53 0-6.21 0-6.21 0 8.56 8.79 16.21 8.21 24.71-3.33 24.71-3.33 6.48.77 10.59 0 14.72-.41 14.72 0 4.7 3.38 7.06 3.36h11.18c8.83 0 4.11 1.14 8.82 0l4.71-1.17z"/></g><g class="S R"><path d="M635.33,237s3.46,2.09,4,11,1.15,7.11,0,14.19-2.8,11.81-1.69,16.53,2.35,12.4,2.35,12.4-.49,1.89,0,10.68,1.25,13.52,0,17.66,1.45,3.66.68,8.91.14,27.1.14,27.1v8.26s-1.4,17.12,0,20.07,3.71-24,3.71-24l2.31-10.65s3.46-9.61,3.46-17.29V314.11L642.83,297s-.58-7.56,0-9.09,0-8,0-8,.57.59,0-8.85a88.34,88.34,0,0,1,0-14.27s-1.16-5.85,0-8.78,0-11,0-11Z"/></g><g mask="url(#F)"><path d="M470.51,350s-1.78,1.78,0,8.16-1.19,8.15,0,12.86-1.58,10-.79,15.92,6.11,10,6.11,10a77.68,77.68,0,0,1,6.5,10.61c3,5.9,5.33,4.13,5.33,10s2.95,5.31-3.55,12.38-10.65,11.13-10.65,11.13-5.91.07-8.87,3.61-5.32,1-4.14,9.61,2.34,6.89-.31,14,3.86,2.94-9.74,7.66-16,3.54-25.44,4.72-4.14-4.13-20.7,0-15.44,4.89-27.2,4.71-4.7-3-10.06,0,2.3,1.27-5.35,3-9.43,7.13-11.8,0-8.87-13.62,0-26.59,23.07-27.58,23.07-27.58l27.2-25.47s6.21-14.15,16.71-33,7.54-18.86,14.05-20.63,15.38-5.51,18.92-5.11,20.71,0,20.71,0" fill="#f7e3c0"/></g></g><g class="Q"><path d="M702.5 152l-1.35-2.78a4.18 4.18 0 0 0-1.74-1.84L696 145.5l3.31-1.72a4.23 4.23 0 0 0 1.87-1.94l1.32-2.84 1.32 2.84a4.23 4.23 0 0 0 1.87 1.94l3.31 1.72-3.41 1.88a4.18 4.18 0 0 0-1.74 1.84zM254 390.63l-1.34-2.78a4.2 4.2 0 0 0-1.75-1.84l-3.41-1.88 3.31-1.72a4.14 4.14 0 0 0 1.87-1.94l1.32-2.84 1.33 2.84a4.14 4.14 0 0 0 1.87 1.94l3.3 1.72-3.4 1.88a4.2 4.2 0 0 0-1.75 1.84zM181.54 52.14l-1.35-2.78a4.15 4.15 0 0 0-1.75-1.84L175 45.64l3.31-1.72a4.16 4.16 0 0 0 1.9-1.92l1.33-2.84 1.32 2.84a4.18 4.18 0 0 0 1.87 1.94l3.27 1.7-3.41 1.88a4.15 4.15 0 0 0-1.75 1.84zM211.5 117l-.73-1.5a2.25 2.25 0 0 0-.94-1l-1.83-1 1.78-.92a2.28 2.28 0 0 0 1-1l.71-1.53.71 1.53a2.28 2.28 0 0 0 1 1l1.78.92-1.83 1a2.25 2.25 0 0 0-.94 1z" class="P"/><ellipse class="O" cx="555.04" cy="70.54" rx="3.04" ry="3.54" opacity=".45"/></g></svg>