<svg xmlns="http://www.w3.org/2000/svg" xmlns:xlink="http://www.w3.org/1999/xlink" width="855" height="825" xmlns:v="https://vecta.io/nano"><style><![CDATA[.B{mask:url(#N)}.C{fill:#fff}.D{mask:url(#L)}.E{opacity:.455}.F{fill-rule:nonzero}]]></style><defs><linearGradient x1="41.6851348%" y1="12.6665901%" x2="80.2019097%" y2="119.969746%" id="A"><stop stop-color="#fdefff" offset="0%"/><stop stop-color="#938b98" offset="100%"/></linearGradient><path d="M853.617 0v835.639c-431.313 192.873-693.05 182.632-785.211-30.722s-91.198-331.122 2.891-353.303c67.304-23.212 72.183-79.877 14.638-169.995S33.417 97.628 101.017 0h752.6z" id="B"/><ellipse id="C" cx="140.754" cy="141.461" rx="140.754" ry="141.461"/><path d="M104.717 3.763l-4.85 1.865a1.62 1.62 0 0 0-.932 2.09h0l3.641 9.558a1.62 1.62 0 0 1 .106.578h0v14.472a1.62 1.62 0 0 1-.762 1.375h0l-6.849 4.28a1.62 1.62 0 0 0-.7 1.82h0l4.631 16.207a1.62 1.62 0 0 1-1.086 1.996h0l-8.093 2.467a1.62 1.62 0 0 0-.965.802h0l-4.832 9.281a1.63 1.63 0 0 1-.765.726h0L59.861 81.963a1.62 1.62 0 0 0-.948 1.475h0v3.629a1.62 1.62 0 0 1-1.237 1.575h0L37.61 93.535a1.62 1.62 0 0 0-1.144 1.036h0l-2.671 7.568c-.175.495-.58.875-1.084 1.019h0l-30.538 8.724c-1.654.472-1.536 2.857.157 3.157h0c96.4 17.077 374.998-5.87 417.068-9.482h0c1.601-.137 2.043-2.269.632-3.038h0l-7.173-3.912-9.218-5.271c-.152-.087-.319-.149-.491-.184h0l-15.657-3.078a1.62 1.62 0 0 1-.94-.562h0l-11.691-14.232a1.62 1.62 0 0 1-.368-1.029h0V63.438c0-1.626-1.106-3.047-2.683-3.445h0l-5.227-1.321a1.6 1.6 0 0 0-.398-.049h0-9.394c-.43 0-.842-.171-1.146-.475h0a37.09 37.09 0 0 1-8.298-12.669h0l-1.708-4.346c-.89-2.266-2.76-4.006-5.084-4.732h0c-3.299-1.031-6.443-2.503-9.346-4.376h0l-12.264-7.912c-.074-.048-.145-.103-.212-.163h0l-6.956-6.323c-3.068-2.79-7.201-4.102-11.316-3.596h0l-23.704 2.917a65.51 65.51 0 0 1-9.911.463h0l-50.686-1.476-39.668-2.681a1.62 1.62 0 0 0-.621.079h0l-10.707 3.568a1.62 1.62 0 0 1-.692.074h0l-17.738-1.971a1.62 1.62 0 0 0-1.738 1.166h0l-.626 2.19a1.63 1.63 0 0 0-.058.562h0l.498 6.957a1.63 1.63 0 0 0 .167.61h0l5.629 11.257c.113.225.171.473.171.724h0v11.733c0 .207-.039.411-.116.602h0l-1.107 2.768c-.598 1.495-2.775 1.298-3.094-.281h0l-1.533-7.596c-.061-.305-.209-.585-.425-.808h0l-3.321-3.425a1.67 1.67 0 0 0-.287-.235h0l-6.664-4.283a1.62 1.62 0 0 1-.744-1.363h0V25.364a1.66 1.66 0 0 0-.071-.477h0l-4.18-13.582a1.63 1.63 0 0 1-.072-.477h0V7.829a1.62 1.62 0 0 0-1.621-1.621h0a1.62 1.62 0 0 0-1.621 1.621h0v11.716a1.59 1.59 0 0 1-.035.34h0l-3.043 14.2a1.62 1.62 0 0 1-.861 1.11h0l-.199.1c-1.078.539-2.347-.245-2.347-1.45h0V22.713a1.62 1.62 0 0 0-.679-1.319h0l-6.208-4.433a1.62 1.62 0 0 1-.679-1.319h0V7.75a1.62 1.62 0 0 0-.896-1.45h0l-4.949-2.474c-.228-.113-.476-.171-.726-.171h0c-.196 0-.394.035-.581.108h0z" id="D"/><path d="M18.341 0l-3.097 3.952-3.335 2.048s.715-.461-1.429-.461h0c-2.144 0-5.002.461-5.002.461h0v1.153L5.24 8.999l-2.62 3.148s-.476-.612-1.429 1.003h0C.238 14.764 0 17.069 0 17.069h0s45.02 9.455 101.711 0h0v-5.765L97.423 9.46l-1.429-1.444-.476-2.476s.476-2.252-1.429-1.587h0c-1.906.665-4.064 0-4.064 0h0l-1.891-1.41L86.942 0H18.341z" id="E"/><linearGradient x1="50%" y1="0.401277637%" x2="50%" y2="69.4228636%" id="F"><stop stop-color="#f0c7e8" offset="0%"/><stop stop-color="#fdf5ff" offset="100%"/></linearGradient><radialGradient cx="50%" cy="157.010988%" fx="50%" fy="157.010988%" r="192.067861%" gradientTransform="translate(0.500000,1.570110),scale(0.113716,1.000000),rotate(90.000000),scale(1.000000,4.375246),translate(-0.500000,-1.570110)" id="G"><stop stop-color="#c992cf" offset=".00527871622%"/><stop stop-color="#ddbee4" offset="44.6737753%"/><stop stop-color="#f8f8ff" offset="100%"/></radialGradient><path d="M45.12 0l-7.618 9.599-8.204 4.975s1.758-1.12-3.516-1.12h0c-5.273 0-12.305 1.12-12.305 1.12h0v2.801l-.586 4.48L6.446 29.5s-1.172-1.486-3.516 2.435h0C.586 35.854 0 41.454 0 41.454h0s110.748 22.961 250.208 0h0v-14l-10.548-4.48-3.516-3.507-1.172-6.013s1.172-5.47-3.516-3.855h0c-4.688 1.615-9.998 0-9.998 0h0l-4.651-3.425L213.878 0H45.12z" id="H"/><radialGradient cx="50%" cy="157.010988%" fx="50%" fy="157.010988%" r="192.067861%" gradientTransform="translate(0.500000,1.570110),scale(0.115439,1.000000),rotate(90.000000),scale(1.000000,4.375246),translate(-0.500000,-1.570110)" id="I"><stop stop-color="#c992cf" offset=".00527871622%"/><stop stop-color="#ddbee4" offset="44.6737753%"/><stop stop-color="#f8f8ff" offset="100%"/></radialGradient><path d="M40.534 0l-6.843 8.657-7.37 4.487s1.58-1.01-3.159-1.01h0c-4.737 0-11.054 1.01-11.054 1.01h0v2.526l-.527 4.041-5.79 6.896s-1.053-1.34-3.159 2.196h0C.527 32.339 0 37.39 0 37.39h0s99.493 20.71 224.781 0h0V24.762l-9.476-4.041-3.159-3.163-1.053-5.424s1.053-4.934-3.159-3.477h0c-4.211 1.457-8.982 0-8.982 0h0l-4.178-3.09L192.142 0H40.534z" id="J"/><radialGradient cx="50%" cy="157.010988%" fx="50%" fy="157.010988%" r="192.067861%" gradientTransform="translate(0.500000,1.570110),scale(0.120583,1.000000),rotate(90.000000),scale(1.000000,4.375246),translate(-0.500000,-1.570110)" id="K"><stop stop-color="#c992cf" offset=".00527871622%"/><stop stop-color="#ddbee4" offset="44.6737753%"/><stop stop-color="#f8f8ff" offset="100%"/></radialGradient></defs><g fill="none" fill-rule="evenodd"><g class="C"><path d="M0 0h855v825H0z"/><path d="M702.5 152l-1.346-2.781a4.19 4.19 0 0 0-1.748-1.842L696 145.5l3.308-1.716c.82-.425 1.476-1.109 1.867-1.946L702.5 139l1.325 2.837c.391.837 1.047 1.521 1.867 1.946L709 145.5l-3.406 1.877a4.19 4.19 0 0 0-1.748 1.842L702.5 152zm-488 296l-1.346-2.781a4.19 4.19 0 0 0-1.748-1.842L208 441.5l3.308-1.716c.82-.425 1.476-1.109 1.867-1.946L214.5 435l1.325 2.837c.391.837 1.047 1.521 1.867 1.946L221 441.5l-3.406 1.877a4.19 4.19 0 0 0-1.748 1.842L214.5 448zm-3-331l-.725-1.497c-.204-.42-.532-.767-.941-.992L208 113.5l1.781-.924a2.25 2.25 0 0 0 1.005-1.048L211.5 110l.713 1.528a2.26 2.26 0 0 0 1.005 1.048l1.781.924-1.834 1.011a2.25 2.25 0 0 0-.941.992L211.5 117z"/><ellipse cx="555.035" cy="70.542" rx="3.035" ry="3.542" class="E F"/></g><g transform="translate(1.383 .117)"><mask id="L" class="C"><use xlink:href="#B"/></mask><use fill="url(#A)" xlink:href="#B"/><g class="D"><g transform="translate(427.982 140.505)"><g transform="matrix(.965926 -.258819 .258819 .965926 0 72.859598)"><mask id="M" class="C"><use xlink:href="#C"/></mask><use fill="#f8b9ff" xlink:href="#C"/><g mask="url(#M)"><g transform="translate(-58.852 -39.295)"><path d="M86.98 42.413c22.885 23.642 48.094 36.415 82.187 32.583 15.917-1.789 27.743-10.927 44.451-6.124 70.786 20.347 15.514 19.112 76.12 23.638 9.451.706 19.131 1.834 28.43 0 8.611-1.698 17.446-15.993 24.215-10.38 9.831 8.152 16.153 27.262 8.461 37.476-12.62 16.757-42.068-4.068-55.528-6.719-20.044-3.948-38.957 15.832-57.208 7.94-17.303-7.483-33.046-31.467-56.001-25.323-57.237 15.318-17.849 25.38-89.269 33.328-14.485 1.612-49.379 14.636-43.707 1.144l-13.738-5.959c116.266-276.582 18.503 8.403 47.369-77.112l4.219-4.49z" fill="#c992cf"/><path d="M37.348 169.868c43.393 8.263 69.743-11.317 110.143-26.524 27.965-10.526 46.982 3.998 74.012 7.245 30.224 3.63 16.192-6.585 41.576-13.749 21.051-5.941 50.263 10.697 66.536 13.389 9.999 1.654 20.738-4.123 30.385-1.005 3.638 1.175-4.797 6.172-8.022 8.231-5.407 3.453-11.078 8.445-17.472 8.047-10.556-.657-19.549-8.317-29.786-10.986-3.168-.826-6.753-.544-9.797.664-10.577 4.196-20.697 9.56-30.515 15.327-5.303 3.114-8.626 10.089-14.666 11.209-10.103 1.874-21.062.795-30.694-2.794-14.147-5.27-25.32-16.675-38.961-23.155-4.759-2.261-10.748-4.896-15.555-2.74-10.628 4.767-17.616 15.376-27.25 21.938-6.47 4.407-14.403 6.347-20.832 10.814-8.031 5.579-14.091 13.758-22.264 19.126-10.417 6.841-21.383 13.182-33.146 17.264-5.231 1.815-14.306 5.06-16.602 0-6.621-14.594-3.403-31.896-5.105-47.845l-1.985-4.455z" fill="#ffa0f1"/><path d="M60.807 248.67c31.909-.835 55.315.79 83.664-13.285 31.428-15.603 61.641-43.167 99.334-38.355 27.665 3.532 42.222 30.6 72.828 27.506 12.69-1.283 32.063-17.76 37.747-6.286 7.259 14.656-3.506 38.696-18.304 45.538-14.437 6.675-29.394-12.484-44.81-16.359-6.555-1.648-13.704-1.598-20.271 0-6.707 1.632-11.717 7.938-18.457 9.425-18.324 4.041-32.338-12.26-50.832-5.936-61.25 20.942-49.972 33.586-106.738 24.866-4.157-.639-10.073 3.715-12.611.345l-8.679 4.118c-5.764-7.65-5.898-18.253-8.847-27.38l-4.024-4.198z" fill="#c992cf"/><path d="M117.499 316.782c51.065-51.893 127.285-15.228 188.844-21.267 11.111-1.09 23.354-15.564 32.31-8.864 7.122 5.328-11.647 13.663-18.763 18.999-7.108 5.33-14.934 10.127-23.44 12.648-34.471 10.218-67.194-25.615-103.401-13.354-13.273 4.495-21.345 18.644-33.795 25.093-6.22 3.222-13.809 4.012-20.756 3.162-6.197-.758-12.643-3.344-17.052-7.786-2.96-2.982-1.924-8.199-2.887-12.299" fill="#ffa0f1"/><path d="M301.305 297.411l-.709.579c-27.931 22.63-63.452 36.178-102.122 36.178-89.93 0-162.833-73.269-162.833-163.651 0-37.543 12.579-72.134 33.732-99.747 22.611 116.158 115.252 207.112 231.932 226.642z" fill-opacity=".45" fill="#7544a5" transform="matrix(.945519 .325568 -.325568 .945519 75.095924 -43.81849)"/></g></g></g></g></g><g fill="#fdf5ff" class="D"><ellipse cx="365.472" cy="575.992" rx="747.505" ry="62.664"/><path d="M-327.002 571.407h1437.94v256.77h-1437.94z"/></g><g class="D"><g transform="translate(428.466 421.514)"><mask id="N" class="C"><use xlink:href="#D"/></mask><path fill="#fdf5ff" transform="matrix(.999848 .017452 -.017452 .999848 1.137364 -3.6413)" d="M-7.716 146.558l433.821.002V-19.87l-433.821-.002z" class="B"/><g fill="#f0c7e8" class="B"><path d="M384.087 83.871l-8.486 1.992c-1.24.201-2.263-.368-3.384-.77-1.128-.404-2.3-.638-3.501-.751-2.397-.225-4.702.234-6.911 1.09-1.15.447-2.304.984-3.535 1.207-1.455.264-2.786-.156-4.187-.473-5.336-1.21-10.518.187-15.84.671-5.537.503-11.143-.479-16.688-.575-6.55-.113-13.094.261-19.628.633-.351.02-.637.131-.866.292-.047-.01-.092-.024-.143-.031-4.453-.52-8.923-.701-13.407-.542-.171.006-.32.041-.458.089l-3.724-.033c-2.428-.022-4.868-.106-7.294.004-1.182.054-2.365.167-3.527.38-.579.105-1.158.263-1.748.308-.565.042-1.075-.044-1.609-.216-1.027-.331-1.977-.804-3.049-1.014-1.139-.223-2.31-.272-3.471-.262-2.723.021-5.447.128-8.169.195-1.116.028-1.12 1.656 0 1.628l7.291-.18c1.111-.026 2.24-.051 3.343.099 1.127.153 2.119.566 3.167.955 1.123.417 2.201.507 3.391.311s2.343-.441 3.551-.527c2.382-.169 4.783-.082 7.169-.061l1.928.017c.152.254.434.445.753.425l1.297-.083c.208.346.593.591 1.158.571 4.484-.159 8.954.022 13.407.542a1.44 1.44 0 0 0 .403-.01c.177.057.376.088.605.074 5.86-.334 11.725-.669 17.598-.653 5.704.016 11.439.953 17.131.705 5.406-.236 10.897-2.125 16.298-.953 2.536.55 4.704 1.048 7.251.25 2.485-.779 4.656-1.985 7.357-1.964 2.777.023 5.163 1.852 7.898 1.624 3.15-.262 6.396-1.417 9.46-2.139 1.952-.46 1.125-3.286-.832-2.825" transform="matrix(.999848 .017452 -.017452 .999848 1.564804 -5.568527)"/><path d="M44.294 83.863l6.477 1.707c.946.173 1.726-.315 2.582-.659.862-.346 1.755-.547 2.671-.644 1.83-.192 3.589.201 5.275.935.878.383 1.757.844 2.698 1.035 1.109.225 2.125-.133 3.194-.406 4.073-1.037 8.028.162 12.09.576 4.226.43 8.503-.41 12.735-.492 4.999-.097 9.993.223 14.98.543.268.017.486.111.661.25.036-.009.07-.021.109-.026 3.398-.446 6.81-.601 10.232-.465a1.06 1.06 0 0 1 .349.076l2.843-.029c1.853-.019 3.715-.091 5.567.004a18.03 18.03 0 0 1 2.691.325c.441.091.883.226 1.334.264.432.037.82-.037 1.227-.185.784-.283 1.508-.689 2.327-.869.87-.19 1.763-.233 2.65-.225 2.077.019 4.156.11 6.234.168.852.023.855 1.419 0 1.395l-5.564-.154c-.848-.022-1.71-.044-2.552.084-.86.132-1.617.486-2.417.819-.857.357-1.679.434-2.588.266s-1.787-.378-2.71-.452c-1.819-.146-3.651-.071-5.472-.052l-1.471.015c-.116.217-.331.381-.574.364l-.99-.071c-.159.296-.452.506-.883.489-3.422-.136-6.834.019-10.232.465a.97.97 0 0 1-.308-.009c-.135.049-.287.075-.461.064-4.473-.287-8.949-.574-13.43-.561-4.354.013-8.73.817-13.073.604-4.126-.202-8.316-1.821-12.438-.817-1.936.471-3.591.898-5.535.214-1.896-.667-3.553-1.701-5.615-1.682-2.119.018-3.939 1.587-6.027 1.391-2.405-.225-4.882-1.215-7.22-1.833-1.49-.394-.859-2.817.635-2.421" transform="matrix(.999848 .017452 -.017452 .999848 1.522699 -1.615737)"/><path d="M32.371 93.405v7.498s18.257-4.741 29.237 0 30.003-.221 38.302.772 31.152-1.654 31.152-1.654 5.745-1.654 10.596 0 21.366-2.977 21.366-2.977-10.258.771-14.6 1.654-7.405-4.08-14.809-2.867-1.66 2.197-14.937 2.367-4.852-2.146-14.044-1.485-12.513 4.411-27.705 3.308-5.873-3.749-19.789-5.844-7.66 3.087-16.597 1.543-8.171-2.315-8.171-2.315" transform="matrix(.999848 .017452 -.017452 .999848 1.728661 -1.689962)"/></g><path d="M383.321 80.335l.099-4.36s-11.985 2.534-19.093-.358-19.595-.238-25.002-.917-20.365.581-20.365.581-3.773.892-6.92-.13-13.991 1.47-13.991 1.47 6.709-.323 9.555-.783 4.783 2.463 9.634 1.849 1.112-1.258 9.785-1.194 3.141 1.307 9.152 1.036 8.228-2.412 18.135-1.585 3.787 2.252 12.846 3.641 5.043-1.702 10.859-.695 5.306 1.446 5.306 1.446" fill="#ededff" transform="matrix(.999848 .017452 -.017452 .999848 1.400707 -5.934866)" class="B"/><g fill="#f0c7e8" class="B"><path d="M161.528 10.342l3.239 14.71-3.239 5.349 1.62 9.361s-5.757 17.101-15.996 12.897l2.069-6.879-4.998-13.946-4.719-17.813 6.802-10.363 15.222 6.686z" transform="matrix(.999848 .017452 -.017452 .999848 .520375 -2.650784)"/><path d="M125.287 2.645v12.539l-4.889 19.09s-.663 4.833 2.444 4.174 4.597-7.425 4.597-7.425l2.482-1.32v-3.795l-1.986-.495.165-3.134 1.821-.66v-3.465l-.663-3.465-.662-1.815-.497-2.97.497-2.64.309-1.8L129.921.17l-5.461 2.475h.827z" transform="matrix(.999848 .017452 -.017452 .999848 .356585 -2.180877)"/><path transform="matrix(.999848 .017452 -.017452 .999848 .292308 -1.786123)" d="M104.798.17l-1.821 6.812 1.821 6.496 4.965 6.178-1.821 6.654-2.317 2.377 5.131 1.901-3.144.951h-4.635l-8.772-2.06 1.49-20.913L101.157.17z"/><path transform="matrix(.999848 .017452 -.017452 .999848 .800951 -1.690456)" d="M96.927 33.281l1.611 6.016 3.942 3.577 1.307 3.577-.654 6.037-6.207 4.319-3.981-3.528-2.225-16.584z"/><path transform="matrix(.999848 .017452 -.017452 .999848 1.10324 -1.474956)" d="M88.78 55.937l2.812 5.013-.661 5.723-5.459 2.334h-6.948z"/><path transform="matrix(.999848 .017452 -.017452 .999848 1.373125 -1.031671)" d="M70.685 69.879L65.97 85.011l-1.787 1.423-6.988-.837-8.289-6.355 13.652-6.02z"/><path transform="matrix(.999848 .017452 -.017452 .999848 1.597653 -.619191)" d="M41.937 86.604l-1.273 8.575-4.397 2.584-5.654-1.429V84.692z"/><path d="M260.591 39.107l-2.834-1.53-5.297-.647-4.928-1.034-3.82.775c-.616.259-7.681-.129-7.681-.129l-6.858.959-5.422-.572c-.369 0-6.653.572-6.653.572l-4.92 1.282h-6.807-.533l6.161 1.606 6.654.571c.369 0 5.421-.571 5.421-.571l6.858.959 7.681-.13c.616.259 3.82.776 3.82.776l4.928-1.035 5.298-.646 2.235-1.207h6.698z" transform="matrix(.999848 .017452 -.017452 .999848 .715133 -4.055497)"/><path d="M254.493 30.3l1.24-.656 2.318-.278 2.156-.443 1.672.332c.269.11 3.36-.055 3.36-.055l3 .411 2.372-.245c.162 0 2.911.245 2.911.245l2.152.55h2.978.232l-2.695.688-2.911.245c-.161 0-2.371-.245-2.371-.245l-3.001.411-3.361-.055c-.269.11-1.67.332-1.67.332l-2.157-.443-2.318-.278-.978-.517h-2.93z" transform="matrix(.999848 .017452 -.017452 .999848 .568233 -4.649752)"/><path d="M234.457 88.543l-1.24.656-2.318.277-2.156.443-1.672-.332c-.269-.111-3.36.055-3.36.055l-3-.411-2.372.245c-.161 0-2.911-.245-2.911-.245l-2.152-.55h-2.978-.232l2.695-.688 2.911-.245a114.14 114.14 0 0 1 2.371.245l3.001-.411 3.36.056c.27-.111 1.671-.332 1.671-.332l2.157.443 2.318.277.978.517h2.93z" transform="matrix(.999848 .017452 -.017452 .999848 1.580356 -3.865493)"/><path d="M131.664 88.774l2.834-1.53 5.298-.647 4.928-1.034 3.82.775c.616.259 7.681-.129 7.681-.129l6.858.959 5.421-.572c.369 0 6.653.572 6.653.572l4.92 1.283h6.807.533l-6.161 1.606-6.653.571c-.369 0-5.421-.571-5.421-.571l-6.858.959-7.681-.13c-.616.259-3.82.776-3.82.776l-4.928-1.035-5.299-.646-2.235-1.207h-6.698z" transform="matrix(.999848 .017452 -.017452 .999848 1.570802 -2.770856)"/></g></g><g transform="translate(178.097 606.461)"><g transform="translate(0 3.737)"><mask id="O" class="C"><use xlink:href="#E"/></mask><path fill="url(#F)" mask="url(#O)" d="M-12.624 28.023h120.29v-36.78h-120.29z"/></g><path d="M0 3.869c0 2.137 15.232 3.869 34.021 3.869s34.021-1.732 34.021-3.869S52.811 0 34.021 0 0 1.732 0 3.869" fill="url(#G)" transform="translate(17.274)"/></g><g transform="translate(600.205 735.461)"><g transform="translate(0 9.299)"><mask id="P" class="C"><use xlink:href="#H"/></mask><path fill="url(#F)" mask="url(#P)" d="M-31.056 68.056h295.914v-89.323H-31.056z"/></g><path d="M0 9.672c0 5.342 37.512 9.672 83.784 9.672s83.784-4.331 83.784-9.672S130.057 0 83.784 0 0 4.33 0 9.672" fill="url(#I)" transform="translate(44.716)"/></g><g transform="translate(4 616.24)"><g transform="translate(0 9.327)"><mask id="Q" class="C"><use xlink:href="#J"/></mask><path fill="url(#F)" mask="url(#Q)" d="M-27.9 61.383h265.841v-80.566H-27.9z"/></g><path d="M0 9.17c0 5.065 34.049 9.171 76.05 9.171s76.05-4.106 76.05-9.171S118.051 0 76.05 0 0 4.106 0 9.17" fill="url(#K)" transform="translate(39.667)"/></g></g></g><g class="C"><path d="M211.5 426l-1.346-2.781a4.19 4.19 0 0 0-1.748-1.842L205 419.5l3.308-1.716c.82-.425 1.476-1.109 1.867-1.946L211.5 413l1.325 2.837c.391.837 1.047 1.521 1.867 1.946L218 419.5l-3.406 1.877a4.19 4.19 0 0 0-1.748 1.842L211.5 426z"/><path d="M499.5 177l-1.346-2.781a4.19 4.19 0 0 0-1.748-1.842L493 170.5l3.308-1.716c.82-.425 1.476-1.109 1.867-1.946L499.5 164l1.325 2.837c.391.837 1.047 1.521 1.867 1.946L506 170.5l-3.406 1.877a4.19 4.19 0 0 0-1.748 1.842L499.5 177z" opacity=".636"/><path d="M142.5 94l-1.346-2.781a4.19 4.19 0 0 0-1.748-1.842L136 87.5l3.308-1.716c.82-.425 1.476-1.109 1.867-1.946L142.5 81l1.325 2.837c.391.837 1.047 1.521 1.867 1.946L149 87.5l-3.406 1.877a4.19 4.19 0 0 0-1.748 1.842L142.5 94z"/><g class="F"><ellipse cx="790.035" cy="323.542" rx="3.035" ry="3.542" class="E"/><ellipse cx="693.035" cy="47.542" rx="3.035" ry="3.542" class="E"/><ellipse cx="493.035" cy="445.542" rx="3.035" ry="3.542" class="E"/></g></g></g></svg>